<svg width="450" height="695" viewBox="0 0 450 695" fill="none" xmlns="http://www.w3.org/2000/svg">
<mask id="mask0_2_19" style="mask-type:luminance" maskUnits="userSpaceOnUse" x="0" y="0" width="450" height="695">
<path d="M450 0H0V694.853H450V0Z" fill="white"/>
</mask>
<g mask="url(#mask0_2_19)">
<path d="M282.077 590.625L244.853 673.346H177.022L143.934 590.625M282.077 590.625H143.934M282.077 590.625L300.689 549.265M143.934 590.625L127.39 549.265M300.689 549.265L319.301 507.904H110.846L127.39 549.265M300.689 549.265H127.39" stroke="#8887CD" stroke-width="3.30882"/>
<path d="M261.458 299.54C256.538 296.321 245.23 281.951 239.356 250.223C255.212 268.769 257.402 286.543 261.458 299.54Z" stroke="#8887CD" stroke-width="3.30882"/>
<path d="M238.945 507.577L270.527 253.353M270.527 253.353C258.527 233.413 252.291 194.92 272.642 143.508C293.151 192.567 280.506 224.243 270.527 253.353Z" stroke="#8887CD" stroke-width="3.30882"/>
<path d="M274.845 247.23C284.855 225.62 313.52 179.008 348.108 165.441C318.472 237.081 300.48 229.409 274.845 247.23Z" stroke="#8887CD" stroke-width="3.30882"/>
<path d="M262.532 334.799C264.176 324.686 274.845 302.476 304.37 294.542C297.293 310.831 273.53 328.167 262.532 334.799Z" stroke="#8887CD" stroke-width="3.30882"/>
<path d="M215.074 506.25C216.141 489.169 216.75 466.367 216.366 440.074M216.366 440.074C215.738 397.074 212.455 344.74 204.178 292.831M216.366 440.074C187 410.138 194.618 359.571 134.007 328.755M167.096 158.824C163.787 154.963 157.831 142.61 160.478 124.081C176.36 132.022 171.507 150.551 167.096 158.824ZM167.096 158.824C175.611 177.696 182.75 198.377 188.709 220.037M188.709 220.037C185.916 208.456 184.302 180 200.184 158.824C198.86 187.941 191.982 211.765 188.709 220.037ZM188.709 220.037C195.165 243.503 200.237 268.119 204.178 292.831M204.178 292.831C188.508 295.037 175.037 283.566 160.478 246.507C194.89 257.096 196.78 284.007 204.178 292.831ZM134.007 328.755C123.159 323.24 110.125 318.357 94.3016 314.338M134.007 328.755C127.39 323.398 126.728 302.096 130.699 279.596C147.904 290.184 136.213 318.435 134.007 328.755ZM94.3016 314.338C86.581 308.272 60.2207 289.853 69.4854 264.706C87.6838 284.559 94.3015 299.449 94.3016 314.338Z" stroke="#8887CD" stroke-width="3.30882"/>
<path d="M90.9927 314.651C70.0368 327.335 27.7941 330.534 0 321.269C51.2868 296.452 66.1765 312.997 90.9927 314.651Z" stroke="#8887CD" stroke-width="3.30882"/>
<path d="M183.64 507.904C178.676 488.051 163.787 441.728 143.934 415.257M143.934 415.257C128.493 419.118 95.9559 419.89 89.3383 392.096C114.485 396.066 136.213 409.191 143.934 415.257Z" stroke="#8887CD" stroke-width="3.30882"/>
<path d="M163.787 450C158.272 439.522 150.22 412.941 162.132 390.441C174.044 415.588 168.198 440.625 163.787 450Z" stroke="#8887CD" stroke-width="3.30882"/>
<path d="M420.155 395.884L420.388 396.892L421.396 397.124L442.637 402.022L421.396 406.92L420.388 407.153L420.155 408.161L415.257 429.402L410.359 408.161L410.127 407.153L409.119 406.92L387.878 402.022L409.119 397.124L410.127 396.892L410.359 395.884L415.257 374.642L420.155 395.884Z" stroke="#8887CD" stroke-width="3.30882"/>
<path d="M49.0515 121.767L49.284 122.775L50.2919 123.007L62.1224 125.735L50.2919 128.463L49.284 128.696L49.0515 129.704L46.3235 141.534L43.5955 129.704L43.3631 128.696L42.3551 128.463L30.5246 125.735L42.3551 123.007L43.3631 122.775L43.5955 121.767L46.3235 109.936L49.0515 121.767Z" stroke="#8887CD" stroke-width="3.30882"/>
</g>
</svg>
